<?xml version="1.0" encoding="UTF-8"?><svg id="uuid-dd35e132-6015-45ae-a60c-40d5857d1c79" xmlns="http://www.w3.org/2000/svg" width="141" height="59" viewBox="0 0 141 59"><polygon points="24.88 .46 24.88 28.2 4 .46 .63 .46 .63 34.22 4.23 34.22 4.23 6.47 25.05 34.22 28.43 34.22 28.43 .46 24.88 .46" fill="#03296a"/><path d="M45.82,30.62c7.48,0,13.34-5.69,13.34-13.28s-5.85-13.27-13.34-13.27h-5.62v26.56l5.62-.02ZM36.65.45h9.23c9.33-.13,16.99,7.32,17.13,16.64.13,9.33-7.32,16.99-16.64,17.13-.01,0-.02,0-.03,0h-9.67V.45Z" fill="#03296a"/><path d="M68.28,17.34C68.28,7.77,76.04,0,85.62,0c6.24,0,12,3.35,15.08,8.78l-3.09,1.75c-3.75-6.6-12.15-8.91-18.76-5.16-6.6,3.75-8.91,12.15-5.16,18.76,2.44,4.29,6.99,6.95,11.93,6.96,4.96.05,9.55-2.6,11.99-6.92l3.09,1.75c-4.72,8.33-15.31,11.25-23.63,6.52-5.43-3.08-8.79-8.85-8.78-15.09" fill="#03296a"/><path d="M8.68,46.99c0-1.74-1.34-2.89-2.97-2.89H1.75v5.72h3.95c1.64,0,2.97-1.04,2.97-2.84M10.42,46.97c.02,2.48-1.98,4.51-4.47,4.53H1.75v7.28H0v-16.36h5.86c2.5-.01,4.54,2,4.56,4.51v.06" fill="#03296a"/><path d="M16.93,44.5l3.05,8.81h-6.14l3.09-8.81ZM15.94,42.42l-5.93,16.36h1.91l1.34-3.82h7.29l1.32,3.82h1.91l-5.92-16.36h-1.92Z" fill="#03296a"/><path d="M31.53,49.73c1.66,0,2.92-1.12,2.92-2.78s-1.28-2.78-2.92-2.78h-4.01v5.56h4.01ZM37.23,58.78h-1.99l-4.63-7.4h-3.08v7.39h-1.74v-16.35h5.86c2.5-.01,4.54,2.01,4.55,4.52,0,0,0,.01,0,.02v.02c0,2.18-1.63,4.02-3.79,4.31l4.83,7.49Z" fill="#03296a"/><polygon points="37.72 42.42 37.72 44.17 42.24 44.17 42.24 58.78 43.99 58.78 43.99 44.17 48.51 44.17 48.51 42.42 37.72 42.42" fill="#03296a"/><polygon points="62.5 42.42 62.5 55.86 52.39 42.42 50.75 42.42 50.75 58.78 52.5 58.78 52.5 45.34 62.59 58.78 64.22 58.78 64.22 42.42 62.5 42.42" fill="#03296a"/><polygon points="68.34 42.42 68.34 58.78 77.28 58.78 77.28 57.09 70.08 57.09 70.08 51.45 76.35 51.45 76.35 49.75 70.08 49.75 70.08 44.11 77.28 44.11 77.28 42.42 68.34 42.42" fill="#03296a"/><path d="M86.66,49.73c1.66,0,2.92-1.12,2.92-2.78s-1.28-2.78-2.92-2.78h-4.01v5.56h4.01ZM92.36,58.78h-1.99l-4.63-7.4h-3.08v7.39h-1.75v-16.35h5.86c2.5-.01,4.54,2.01,4.55,4.52,0,0,0,.01,0,.02v.02c0,2.18-1.63,4.03-3.79,4.31l4.83,7.49Z" fill="#03296a"/><path d="M93.39,55.67l1.58-.92c.58,1.56,2.1,2.58,3.76,2.51,1.83,0,3.27-.98,3.27-2.72,0-4.06-7.96-2.75-7.96-8.02,0-2.67,2.04-4.31,4.55-4.31,1.69-.02,3.29.74,4.36,2.05l-1.36,1.15c-.68-.95-1.78-1.49-2.94-1.44-1.53,0-2.86.79-2.86,2.42,0,3.9,7.96,2.53,7.96,8.09,0,2.86-2.26,4.53-5.04,4.53-2.42,0-4.47-1.31-5.32-3.32" fill="#03296a"/><polygon points="117.31 42.42 117.31 49.73 108.29 49.73 108.29 42.42 106.54 42.42 106.54 58.78 108.29 58.78 108.29 51.47 117.31 51.47 117.31 58.78 119.05 58.78 119.05 42.42 117.31 42.42" fill="#03296a"/><rect x="123.17" y="42.42" width="1.74" height="16.36" fill="#03296a"/><path d="M137.68,46.99c0-1.74-1.34-2.89-2.97-2.89h-3.95v5.72h3.95c1.64,0,2.97-1.04,2.97-2.84M139.42,46.97c.02,2.48-1.98,4.51-4.47,4.53h-4.2v7.28h-1.75v-16.36h5.86c2.5-.01,4.54,2.01,4.55,4.51v.06" fill="#03296a"/><polygon points="128.98 .25 137.98 15.7 140.12 15.7 131.11 .25 128.98 .25" fill="#fbaa19"/><polygon points="137.7 19.24 128.97 34.22 131.1 34.22 139.84 19.24 137.7 19.24" fill="#fbaa19"/><polygon points="121.11 .25 130.12 15.7 132.26 15.7 123.25 .25 121.11 .25" fill="#008942"/><polygon points="129.83 19.24 121.1 34.22 123.24 34.22 131.97 19.24 129.83 19.24" fill="#008942"/><polygon points="113.36 .25 122.37 15.7 124.5 15.7 115.5 .25 113.36 .25" fill="#009bd0"/><polygon points="122.08 19.24 113.35 34.22 115.49 34.22 124.22 19.24 122.08 19.24" fill="#009bd0"/><polygon points="105.61 .25 114.62 15.7 116.75 15.7 107.75 .25 105.61 .25" fill="#03296a"/><polygon points="114.33 19.24 105.6 34.22 107.74 34.22 116.47 19.24 114.33 19.24" fill="#03296a"/></svg>